<svg width="286" height="371" viewBox="0 0 286 371" fill="none" xmlns="http://www.w3.org/2000/svg">
<g opacity="0.1">
<path d="M0 463.352H16.9596C83.242 460.625 150.702 448.921 209.872 417.731C236.723 403.122 262.707 383.792 277.177 356.237C287.846 336.175 289.046 311.347 279.644 290.598C268.375 265.149 246.547 245.974 223.186 231.698L223.164 231.676C192.935 250.164 159.26 262.378 124.919 270.758C84.0644 280.578 41.9877 285.056 0 285.012V463.352Z" fill="#415364"/>
<path d="M223.166 231.654L223.188 231.676C246.127 217.687 267.466 198.975 279.002 174.278C288.493 154.214 288.293 130.049 278.624 110.096C264.643 81.009 237.681 60.79 209.941 45.6701C150.815 14.477 83.3984 2.77121 17.182 -3.05176e-05H0V178.313C41.4991 178.357 83.0427 182.658 123.43 192.258C158.306 200.616 192.47 212.987 223.166 231.654Z" fill="#5271FB"/>
</g>
</svg>
