<svg width="174" height="50" viewBox="0 0 174 50" fill="none" xmlns="http://www.w3.org/2000/svg">
<path d="M138.489 3.4666C138.31 2.38541 138.401 1.13201 138.449 0C139.584 0.0508134 140.719 0.00846888 141.854 0.0225837C141.86 1.17153 141.88 2.32048 141.846 3.46943C140.725 3.45531 139.607 3.46096 138.489 3.4666Z" fill="white"/>
<path d="M17.8529 1.13201C18.9907 1.04167 20.1399 1.13201 21.2834 1.08966L21.3714 1.19976C21.4168 6.87957 21.3855 12.5622 21.3884 18.2448C20.2137 18.2505 19.0389 18.2477 17.8642 18.2448C17.8529 12.5424 17.8784 6.83722 17.8529 1.13201Z" fill="white"/>
<path d="M170.201 1.11506C171.376 1.07554 172.553 1.10941 173.731 1.09812V18.2476C172.553 18.242 171.379 18.2561 170.207 18.242C170.195 12.5311 170.204 6.8231 170.201 1.11506Z" fill="white"/>
<path d="M1.86922 1.33245C3.10353 1.11508 4.46836 1.3014 5.75375 1.23929C8.09469 1.26188 10.7052 0.982402 12.7113 2.4447C14.9955 3.98886 15.1686 7.92125 12.7624 9.42025C15.4268 10.3857 16.1277 14.2024 14.3344 16.2603C13.1398 17.669 11.2074 18.1545 9.42832 18.2223C6.95118 18.2844 4.47404 18.2194 1.9969 18.259L1.88624 18.146C1.88624 15.7663 1.87489 13.3893 1.89191 11.0096C1.26482 10.9757 0.634899 11.0096 0.00781155 10.9926C0.00213655 10.0554 0.00213655 9.11537 0.00781155 8.17532C0.634899 8.14991 1.26766 8.21484 1.89191 8.14427C1.86354 5.8746 1.90894 3.60211 1.86922 1.33245ZM5.59769 8.16685C7.1271 8.08499 8.80974 8.46609 10.2001 7.65872C11.162 7.14212 11.3465 5.7024 10.4952 4.99666C9.15024 3.83642 7.23776 4.36714 5.62039 4.22881C5.55229 5.53867 5.60337 6.857 5.59769 8.16685ZM5.59769 15.2412C6.69297 15.2497 7.79108 15.2553 8.88919 15.2412C9.95041 15.2356 11.1478 14.7161 11.4798 13.6321C11.8544 12.5707 11.04 11.45 10.0043 11.1902C8.57423 10.8261 7.07886 11.0745 5.62323 10.9842C5.55229 12.4013 5.60337 13.8241 5.59769 15.2412Z" fill="white"/>
<path d="M78.7229 1.16588C79.8579 0.999326 81.0723 1.16023 82.2414 1.08401C82.3208 6.78358 82.2527 12.4916 82.2754 18.194C81.1149 18.3126 79.9061 18.2251 78.7286 18.2364C78.7229 12.5453 78.7343 6.85416 78.7229 1.16588Z" fill="white"/>
<path d="M92.045 3.81665C93.6737 2.00713 96.1423 1.15177 98.5372 1.07273C100.694 0.982395 102.927 1.31833 104.828 2.38541C104.632 3.42708 104.49 4.48005 104.246 5.50761C103.741 5.47656 103.352 4.99948 102.859 4.85268C100.79 3.90134 98.1995 3.67833 96.1593 4.81598C94.5391 5.73627 93.7702 7.64177 93.7191 9.42871C93.634 11.0999 94.0057 12.9123 95.2343 14.1318C96.2246 15.1593 97.6831 15.6336 99.0933 15.6054C101.051 15.6054 103.009 15.0662 104.661 14.0104C104.655 15.0859 104.649 16.1615 104.663 17.237C102.507 18.5074 99.8765 18.7643 97.422 18.5017C94.5987 18.194 91.8435 16.5031 90.7199 13.8354C89.3465 10.6115 89.6586 6.49847 92.045 3.81665Z" fill="white"/>
<path d="M146.034 1.33244C147.206 1.32115 148.378 1.32679 149.553 1.32962C149.57 2.82579 149.55 4.32478 149.561 5.82378C150.795 5.83225 152.033 5.8266 153.27 5.82378C153.256 6.6989 153.363 7.61354 153.219 8.46607C151.999 8.44631 150.778 8.45478 149.561 8.45761C149.584 10.5748 149.51 12.6949 149.598 14.8093C149.987 16.2744 151.902 16.0062 153.012 15.6195C153.372 16.297 153.304 17.206 153.519 17.9682C153.236 18.3465 152.626 18.2364 152.214 18.4001C150.69 18.609 148.996 18.7276 147.623 17.9117C146.536 17.2709 146.057 15.978 146.034 14.7726C146.02 12.6695 146.034 10.5635 146.028 8.46043C145.373 8.44349 144.718 8.4689 144.068 8.44914C144.054 7.57966 144.062 6.70737 144.062 5.83507C144.715 5.80966 145.37 5.83789 146.026 5.82378C146.037 4.32761 146.017 2.82861 146.034 1.33244Z" fill="white"/>
<path d="M64.9412 5.40032C67.092 4.95712 69.4358 4.69458 71.5242 5.54147C72.8692 6.07219 73.8197 7.3764 73.9701 8.802C74.1631 10.6906 73.9502 12.5989 74.0864 14.4875C74.1886 15.3005 75.1023 15.3287 75.7265 15.4247C75.7038 16.2292 75.7123 17.0309 75.7208 17.8355C74.0354 17.9258 71.9385 17.8214 70.9425 16.232C69.1832 18.1827 66.0109 18.8772 63.6785 17.5645C61.3744 16.2942 61.3801 12.4352 63.7381 11.2185C65.7953 10.1203 68.2384 10.2248 70.497 10.4026C70.6247 9.45128 70.3381 8.29386 69.2854 8.01721C67.2764 7.46673 65.154 8.05956 63.2444 8.71166C62.9067 7.93535 62.8301 7.03764 62.5804 6.21616C63.2585 5.7419 64.1467 5.62334 64.9412 5.40032ZM66.2776 12.8925C65.6052 13.2143 65.364 14.2023 65.9627 14.7105C67.2282 15.7493 69.328 15.5686 70.5169 14.5326C70.4913 13.872 70.5055 13.2086 70.4913 12.5481C69.0953 12.4013 67.5715 12.246 66.2776 12.8925Z" fill="white"/>
<path d="M29.1716 5.38622C31.4785 4.93737 34.0039 5.66005 35.6553 7.33689C37.1876 8.83871 37.8657 11.1507 37.3238 13.2312C36.7591 15.5602 34.7672 17.3979 32.4631 17.9879C30.2669 18.6231 27.7898 18.0896 26.0078 16.6724C24.1067 15.2017 23.1533 12.6046 23.769 10.27C24.3763 7.75187 26.6434 5.82661 29.1716 5.38622ZM29.3958 8.13297C26.8307 9.25933 26.4874 13.172 28.6183 14.8883C29.6881 15.8312 31.4416 15.8199 32.5029 14.8657C34.3018 13.3526 34.3359 10.27 32.588 8.70321C31.7538 7.91842 30.4542 7.66436 29.3958 8.13297Z" fill="white"/>
<path d="M39.3952 5.74192C40.5756 5.73628 41.756 5.73346 42.9364 5.74192C42.9335 5.99881 42.9307 6.50977 42.9278 6.76666C45.1922 5.48221 48.7476 4.95432 50.399 7.4724C51.9284 6.19642 53.9799 5.49068 55.9832 5.72781C57.9184 5.99035 59.4421 7.78293 59.4988 9.70537C59.5102 12.5509 59.5017 15.3993 59.5017 18.2477C58.344 18.2364 57.1834 18.2703 56.0286 18.2307C56.0172 15.484 56.0456 12.7372 56.0144 9.99049C56.0257 8.92905 55.0042 8.14709 53.9827 8.22331C52.9953 8.26283 51.8546 8.46326 51.0998 9.10972C51.2531 12.1501 51.1311 15.2017 51.1651 18.2448C50.0074 18.2505 48.8497 18.2477 47.6948 18.2448C47.6863 15.5856 47.7034 12.9264 47.6863 10.27C47.7147 9.49647 47.3402 8.63546 46.5513 8.38704C45.3539 7.98336 44.0685 8.38704 42.9704 8.89518C42.8995 12.0089 42.9619 15.1283 42.9364 18.2448C41.756 18.2505 40.5756 18.2477 39.3952 18.2477C39.3895 14.0781 39.3895 9.91145 39.3952 5.74192Z" fill="white"/>
<path d="M107.838 6.59444C110.284 5.64028 113.017 5.30717 115.605 5.81813C117.341 6.14842 118.899 7.51473 119.123 9.31578C119.333 11.3286 119.066 13.3696 119.268 15.3823C119.413 16.0429 120.281 15.9667 120.777 15.8227C121.016 16.5623 120.831 17.5024 120.865 18.3154C119.674 18.5497 118.385 18.7163 117.231 18.2533C116.493 17.9654 116.03 17.254 115.829 16.52C114.226 18.688 110.843 19.1792 108.599 17.7565C106.536 16.4099 106.752 12.9602 108.846 11.7435C110.889 10.5127 113.4 10.6623 115.687 10.8854C115.769 9.99894 115.625 8.89516 114.674 8.52535C112.588 7.77162 110.31 8.4943 108.329 9.08995C108.222 8.25435 107.816 7.40746 107.838 6.59444ZM111.649 13.155C110.929 13.3893 110.611 14.2616 110.883 14.9391C111.13 15.6788 112.012 15.9131 112.716 15.9102C113.803 15.9752 114.83 15.4868 115.605 14.7585C115.758 14.2193 115.701 13.5954 115.639 13.0421C114.322 12.8897 112.926 12.709 111.649 13.155Z" fill="white"/>
<path d="M122.639 5.82941C123.686 5.82377 124.73 5.82659 125.777 5.82659C125.967 6.39401 126.004 7.00094 126.101 7.5853C127.834 5.09826 131.764 4.94018 133.878 7.01506C135.467 8.58745 135.873 10.9729 135.652 13.1127C135.473 14.9899 134.571 16.9293 132.857 17.8722C131.024 18.8687 128.481 18.8376 126.915 17.3528C126.643 17.1523 126.487 16.7938 126.143 16.7119C126.166 19.1143 126.129 21.5166 126.163 23.919L126.058 24.0347C124.929 24.0375 123.799 24.0347 122.673 24.0347C122.565 17.9823 122.628 11.8931 122.639 5.82941ZM126.146 9.52468C126.166 11.2439 126.123 12.9687 126.169 14.6907C127.19 15.7888 128.907 16.2744 130.306 15.6279C131.384 15.1339 131.92 13.9398 132.037 12.8191C132.17 11.5008 132.008 9.99893 131.032 9.00807C129.684 7.70669 127.233 8.08496 126.146 9.52468Z" fill="white"/>
<path d="M138.37 5.83507C139.542 5.81813 140.717 5.8266 141.894 5.82942C141.908 9.96789 141.889 14.1064 141.903 18.2448C140.762 18.3832 139.576 18.2477 138.418 18.3154C138.299 14.1656 138.401 9.9933 138.37 5.83507Z" fill="white"/>
<path d="M155.358 6.66219C157.793 5.60358 160.593 5.3241 163.201 5.81812C164.98 6.15123 166.558 7.5853 166.736 9.43152C166.907 11.3963 166.691 13.3809 166.85 15.3456C166.986 16.0824 167.911 15.9385 168.448 15.8284C168.521 16.647 168.47 17.4798 168.47 18.3069C167.287 18.5553 166.004 18.7106 164.85 18.2618C164.115 17.9879 163.629 17.2878 163.442 16.551C161.791 18.6429 158.513 19.182 156.252 17.796C154.127 16.4748 154.328 12.9602 156.451 11.7379C158.485 10.5127 160.988 10.668 163.263 10.8769C163.385 9.96224 163.187 8.81047 162.177 8.48865C160.114 7.86195 157.898 8.38702 155.948 9.15487C155.755 8.3221 155.562 7.48932 155.358 6.66219ZM159.257 13.1465C158.119 13.4966 158.102 15.3061 159.214 15.6957C160.579 16.232 162.194 15.7663 163.204 14.7443C163.334 14.1995 163.263 13.6095 163.238 13.0534C161.927 12.8727 160.534 12.7203 159.257 13.1465Z" fill="white"/>
<path d="M1.63371 26.6545C2.45375 25.8951 3.18015 25.0087 4.05977 24.3255C4.74928 24.9296 5.38205 25.593 6.05454 26.2141C6.72986 25.6043 7.36262 24.9494 8.02092 24.3227C8.92041 24.9889 9.66668 25.8894 10.5009 26.6545C9.67235 27.4195 8.92893 28.3595 8.03511 29.0003C7.38532 28.3539 6.72702 27.7131 6.05737 27.0836C5.40191 27.747 4.73794 28.4019 4.07964 29.0596C3.27946 28.2438 2.45091 27.4562 1.63371 26.6545Z" fill="white"/>
<path d="M42.5675 26.694C43.6542 26.7053 44.741 26.6911 45.8278 26.7024C45.8334 30.5445 45.8278 34.3866 45.8306 38.2314C45.8334 39.5836 45.4759 41.0403 44.4431 41.9916C43.3506 43.0079 41.7985 43.2845 40.3542 43.3467C31.7481 43.3241 23.1391 43.3467 14.533 43.3354C13.0632 43.3975 11.4912 43.2591 10.2569 42.384C8.60828 43.214 6.73553 43.7842 4.87129 43.4737C3.21987 43.2563 1.69046 42.2598 0.876095 40.8088C-0.630618 38.1467 -0.176621 34.4458 2.10473 32.3512C3.9037 30.6828 6.6504 30.6433 8.85798 31.4422C8.86082 30.8437 8.84379 30.2453 8.85798 29.6468C9.92204 29.644 10.9861 29.644 12.0502 29.6468C12.0814 32.4811 12.0587 35.3181 12.1041 38.1524C12.07 38.9315 12.5666 39.7812 13.4264 39.7954C20.1938 39.8575 26.9612 39.8067 33.7315 39.8208C33.7429 37.664 33.7287 35.5101 33.7372 33.3533C34.8466 33.3505 35.9561 33.3477 37.0684 33.3533C37.0769 35.5101 37.0627 37.664 37.0741 39.8208C38.3141 39.8264 39.5597 39.8518 40.7912 39.7558C41.8382 39.6345 42.4398 38.6012 42.4568 37.6273C42.5703 33.9885 42.4199 30.3187 42.5675 26.694ZM4.99047 34.3781C2.74033 35.129 2.40834 38.6351 4.42013 39.8434C5.78213 40.5773 7.48463 40.2414 8.8523 39.6824C8.85514 38.0564 8.85798 36.4304 8.8523 34.8044C7.73717 34.1635 6.24181 34.0224 4.99047 34.3781Z" fill="white"/>
<path d="M49.7378 26.6996C50.8473 26.6996 51.9539 26.694 53.0634 26.7025C53.0747 30.1691 53.0577 33.6328 53.0691 37.0994C53.0861 37.9266 53.2024 38.9118 53.9459 39.4256C54.624 39.9252 55.5036 39.7756 56.2896 39.8236C56.3606 38.271 56.1024 36.6703 56.5819 35.1601C57.0047 33.7062 57.9751 32.3456 59.3882 31.7076C61.7575 30.6433 64.8986 31.27 66.428 33.438C67.8042 35.2589 67.9262 37.7036 67.3275 39.8292C68.9591 39.753 70.7041 39.9619 72.2648 39.7248C72.2563 35.3915 72.2818 31.0555 72.2761 26.7222C73.3629 26.7081 74.4525 26.7194 75.5421 26.7166C75.6925 32.2242 75.5676 37.7995 75.6045 43.3325C72.5372 43.3749 69.4727 43.3213 66.4053 43.3325C66.3997 42.6522 66.3911 41.9719 66.4224 41.2915C64.6858 43.6995 61.4425 43.389 58.8207 43.3692C56.5081 43.2225 53.9998 43.7193 51.8802 42.5449C50.4387 41.7573 49.7719 40.0777 49.7549 38.5081C49.7265 34.5729 49.718 30.6348 49.7378 26.6996ZM59.8081 35.8545C59.3116 37.0938 59.5982 38.4629 59.5244 39.7615C60.9573 39.6373 62.569 40.1595 63.8204 39.228C65.1994 38.2456 65.0405 35.9928 63.7239 35.0302C62.5321 34.0958 60.4296 34.3866 59.8081 35.8545Z" fill="white"/>
<path d="M78.93 26.7024C80.0452 26.6968 81.1575 26.6912 82.2726 26.7053C82.284 32.2129 82.2641 37.7177 82.284 43.2253C81.2483 43.485 80.031 43.2648 78.9244 43.3354C78.9244 37.7911 78.913 32.2468 78.93 26.7024Z" fill="white"/>
<path d="M100.881 26.7053C102.013 26.6883 103.145 26.7024 104.28 26.6968C104.329 31.5636 104.286 36.436 104.303 41.3057C104.36 43.3975 103.438 45.4893 101.846 46.8584C100.265 48.253 98.0434 48.8853 95.9607 48.5353C93.2651 48.1372 90.927 46.068 90.1978 43.4596C89.4572 40.9613 90.2205 37.8221 92.3202 36.2582C93.0466 37.074 93.9206 37.8588 94.5193 38.7311C93.0835 40.041 92.9359 42.4546 94.2412 43.9028C95.4613 45.4018 97.8789 45.6671 99.3913 44.4561C100.279 43.7899 100.853 42.7115 100.875 41.6021C100.884 36.6365 100.872 31.6709 100.881 26.7053Z" fill="white"/>
<path d="M107.319 26.7024C108.46 26.694 109.601 26.6968 110.741 26.7024C110.781 31.1288 110.738 35.5553 110.761 39.9817C119.546 39.9873 128.334 39.9817 137.119 39.9845C138.271 39.9986 139.528 40.0014 140.501 39.2872C141.789 38.4319 142.24 36.4868 141.31 35.2193C140.353 33.9123 138.203 33.8925 137.156 35.0979C136.231 36.0888 136.301 37.5878 136.73 38.7847C135.728 38.7791 134.729 38.7904 133.734 38.7819C133.138 37.122 133.203 35.16 134.224 33.678C136.14 30.7873 140.765 30.186 143.259 32.6645C145.495 34.8241 145.679 38.6972 143.693 41.077C142.212 42.9147 139.698 43.533 137.428 43.4116C127.392 43.3918 117.338 43.4229 107.319 43.4031C107.314 37.8362 107.314 32.2693 107.319 26.7024Z" fill="white"/>
<path d="M162.54 26.6968C163.678 26.7053 164.818 26.6883 165.959 26.7053C165.976 31.1289 165.95 35.5553 165.97 39.9789C167.389 39.9676 168.819 40.0297 170.235 39.9478C170.244 36.9978 170.227 34.0478 170.244 31.0978C171.404 31.0837 172.568 31.095 173.731 31.0978V43.3862C170.893 43.5443 168.059 43.2902 165.221 43.4765C162.894 43.485 160.571 43.3551 158.244 43.4088C158.096 45.334 157.024 47.2254 155.225 48.0554C153.312 49.0406 151.096 48.6115 149.033 48.6934C149.019 47.6093 149.022 46.5253 149.033 45.4413C150.356 45.4074 151.681 45.4808 153.003 45.4074C154.047 45.3086 154.827 44.4166 154.975 43.4144C153.471 43.3551 151.911 43.5753 150.466 43.0531C149.073 42.576 147.947 41.4609 147.385 40.1144C146.389 37.7657 146.797 34.8185 148.576 32.944C150.815 30.5502 155.369 30.6715 157.171 33.5312C158.479 35.4198 158.284 37.808 158.244 39.9789C159.648 39.9958 161.053 39.9732 162.46 39.9902C162.616 35.5779 162.458 31.1232 162.54 26.6968ZM150.898 35.0302C149.547 35.942 149.311 38.1552 150.594 39.228C151.82 40.2781 153.539 39.897 155.02 39.9619C154.921 38.6803 155.185 37.3535 154.808 36.1086C154.311 34.539 152.155 34.1127 150.898 35.0302Z" fill="white"/>
<path d="M30.9196 47.073C31.7453 46.3418 32.5057 45.5373 33.2974 44.7722C33.9585 45.3735 34.5743 46.0228 35.2326 46.6269C35.9022 46.0341 36.4952 45.3566 37.1819 44.7807C37.9792 45.5457 38.7511 46.339 39.5597 47.0927C38.9071 47.9763 38.0105 48.7131 37.2245 49.4951C36.4924 49.0265 35.9135 48.2558 35.2411 47.6714C34.5657 48.253 34.0096 48.9898 33.3002 49.512C32.5 48.7131 31.5807 47.965 30.9196 47.073Z" fill="white"/>
<path d="M170.241 45.2663C171.387 45.2522 172.536 45.2606 173.686 45.2606C173.705 46.4068 173.694 47.5529 173.691 48.6962C172.539 48.7018 171.39 48.7047 170.241 48.6962C170.232 47.5529 170.232 46.4096 170.241 45.2663Z" fill="white"/>
</svg>
