<svg width="20" height="20" viewBox="0 0 20 20" fill="none" xmlns="http://www.w3.org/2000/svg">
<path d="M6.66671 3.33334H6.0002C5.06678 3.33334 4.59972 3.33334 4.2432 3.51499C3.9296 3.67478 3.67482 3.92957 3.51503 4.24317C3.33337 4.59969 3.33337 5.06675 3.33337 6.00017V6.66667M6.66671 3.33334H13.3334M6.66671 3.33334V1.66667M13.3334 3.33334H14.0002C14.9336 3.33334 15.3997 3.33334 15.7562 3.51499C16.0698 3.67478 16.3254 3.92957 16.4852 4.24317C16.6667 4.59934 16.6667 5.06583 16.6667 5.99743V6.66667M13.3334 3.33334V1.66667M3.33337 6.66667V14.0002C3.33337 14.9336 3.33337 15.4001 3.51503 15.7566C3.67482 16.0702 3.9296 16.3254 4.2432 16.4852C4.59938 16.6667 5.06587 16.6667 5.99747 16.6667H14.0026C14.9342 16.6667 15.4 16.6667 15.7562 16.4852C16.0698 16.3254 16.3254 16.0702 16.4852 15.7566C16.6667 15.4004 16.6667 14.9346 16.6667 14.003V6.66667M3.33337 6.66667H16.6667M13.3334 13.3333H13.335L13.335 13.335L13.3334 13.335V13.3333ZM10 13.3333H10.0017L10.0017 13.335L10 13.335V13.3333ZM6.66671 13.3333H6.66837L6.66833 13.335L6.66671 13.335V13.3333ZM13.335 10V10.0017L13.3334 10.0016V10H13.335ZM10 10H10.0017L10.0017 10.0017L10 10.0016V10ZM6.66671 10H6.66837L6.66833 10.0017L6.66671 10.0016V10Z" stroke="#292D32" stroke-width="2" stroke-linecap="round" stroke-linejoin="round"/>
</svg>
