<svg width="16" height="18" viewBox="0 0 16 18" fill="none" xmlns="http://www.w3.org/2000/svg">
<rect x="1" y="6.25" width="14" height="10.5" rx="4" stroke="#292D32" stroke-width="2"/>
<path d="M8.00037 12.3753L8.00037 10.6253" stroke="#292D32" stroke-width="2" stroke-linecap="round" stroke-linejoin="round"/>
<path d="M10.051 3.07099C10.3666 3.52416 10.9899 3.63561 11.4431 3.31992C11.8963 3.00423 12.0077 2.38095 11.692 1.92779L10.051 3.07099ZM4.47371 1.70396C4.13055 2.1367 4.20317 2.76568 4.6359 3.10884C5.06864 3.452 5.69763 3.37938 6.04079 2.94664L4.47371 1.70396ZM5.49963 6.25V4.5H3.49963V6.25H5.49963ZM5.49963 4.5C5.49963 3.11929 6.61892 2 7.99963 2V2.38419e-07C5.51435 2.38419e-07 3.49963 2.01472 3.49963 4.5H5.49963ZM11.692 1.92779C11.1553 1.1574 10.3911 0.574165 9.50646 0.259777L8.83676 2.14432C9.32825 2.31898 9.75281 2.643 10.051 3.07099L11.692 1.92779ZM9.50646 0.259777C8.62176 -0.05461 7.66089 -0.0844052 6.75842 0.174565L7.31007 2.09698C7.81144 1.95311 8.34526 1.96966 8.83676 2.14432L9.50646 0.259777ZM6.75842 0.174565C5.85595 0.433535 5.05708 0.9683 4.47371 1.70396L6.04079 2.94664C6.36488 2.53794 6.8087 2.24085 7.31007 2.09698L6.75842 0.174565Z" fill="#292D32"/>
</svg>
